<?xml version="1.0" encoding="UTF-8"?>
<!DOCTYPE svg PUBLIC "-//W3C//DTD SVG 1.1//EN" "http://www.w3.org/Graphics/SVG/1.1/DTD/svg11.dtd">
<svg xmlns="http://www.w3.org/2000/svg" version="1.1" width="5334px" height="3000px" style="shape-rendering:geometricPrecision; text-rendering:geometricPrecision; image-rendering:optimizeQuality; fill-rule:evenodd; clip-rule:evenodd" xmlns:xlink="http://www.w3.org/1999/xlink">
<g><path style="opacity:0.962" fill="#000000" d="M 295.5,561.5 C 341.168,561.333 386.835,561.5 432.5,562C 433.434,579.096 434.101,596.263 434.5,613.5C 431.833,613.5 429.167,613.5 426.5,613.5C 427.93,578.092 411.43,564.425 377,572.5C 376.333,624.5 376.333,676.5 377,728.5C 377.772,729.849 378.939,730.682 380.5,731C 386.491,731.499 392.491,731.666 398.5,731.5C 398.662,733.527 398.495,735.527 398,737.5C 397.481,738.516 396.647,739.182 395.5,739.5C 373.844,738.239 352.177,738.239 330.5,739.5C 330.5,736.833 330.5,734.167 330.5,731.5C 336.509,731.666 342.509,731.499 348.5,731C 350.723,730.348 351.89,728.848 352,726.5C 352.667,676.167 352.667,625.833 352,575.5C 351.727,573.671 350.893,572.171 349.5,571C 342.167,570.333 334.833,570.333 327.5,571C 314.974,572.53 307.141,579.363 304,591.5C 302.836,598.798 302.003,606.131 301.5,613.5C 298.833,613.5 296.167,613.5 293.5,613.5C 294.124,596.117 294.791,578.784 295.5,561.5 Z"/></g>
<g><path style="opacity:0.98" fill="#000000" d="M 442.5,561.5 C 465.167,561.5 487.833,561.5 510.5,561.5C 510.5,563.833 510.5,566.167 510.5,568.5C 504.112,568.312 497.778,568.812 491.5,570C 490.151,570.772 489.318,571.939 489,573.5C 488.173,596.406 488.34,619.239 489.5,642C 522.165,642.5 554.832,642.667 587.5,642.5C 587.667,619.164 587.5,595.831 587,572.5C 586.626,571.584 586.126,570.75 585.5,570C 578.88,568.863 572.214,568.363 565.5,568.5C 565.5,566.167 565.5,563.833 565.5,561.5C 588.167,561.5 610.833,561.5 633.5,561.5C 633.5,563.833 633.5,566.167 633.5,568.5C 627.112,568.312 620.778,568.812 614.5,570C 613.151,570.772 612.318,571.939 612,573.5C 611.333,624.833 611.333,676.167 612,727.5C 612.5,729.333 613.667,730.5 615.5,731C 621.491,731.499 627.491,731.666 633.5,731.5C 633.663,733.857 633.497,736.19 633,738.5C 632.275,739.059 631.442,739.392 630.5,739.5C 610.51,738.191 590.51,738.191 570.5,739.5C 568.9,739.449 567.4,739.116 566,738.5C 565.503,736.19 565.337,733.857 565.5,731.5C 571.509,731.666 577.509,731.499 583.5,731C 584.931,730.535 586.097,729.701 587,728.5C 587.5,703.169 587.667,677.836 587.5,652.5C 554.593,652.171 521.76,652.504 489,653.5C 488.333,678.167 488.333,702.833 489,727.5C 489.5,729.333 490.667,730.5 492.5,731C 498.491,731.499 504.491,731.666 510.5,731.5C 510.663,733.857 510.497,736.19 510,738.5C 509.275,739.059 508.442,739.392 507.5,739.5C 487.51,738.191 467.51,738.191 447.5,739.5C 445.9,739.449 444.4,739.116 443,738.5C 442.503,736.19 442.337,733.857 442.5,731.5C 448.509,731.666 454.509,731.499 460.5,731C 461.931,730.535 463.097,729.701 464,728.5C 464.667,676.5 464.667,624.5 464,572.5C 463.626,571.584 463.126,570.75 462.5,570C 455.88,568.863 449.214,568.363 442.5,568.5C 442.5,566.167 442.5,563.833 442.5,561.5 Z"/></g>
<g><path style="opacity:0.957" fill="#000000" d="M 642.5,561.5 C 681.739,561.17 720.906,561.503 760,562.5C 760.375,576.505 760.875,590.505 761.5,604.5C 761.167,607.833 760.833,611.167 760.5,614.5C 758.5,615.833 756.5,615.833 754.5,614.5C 753.764,606.434 752.598,598.434 751,590.5C 745.78,579.296 736.947,573.129 724.5,572C 713.167,571.333 701.833,571.333 690.5,572C 690,572.5 689.5,573 689,573.5C 688.173,597.073 688.34,620.573 689.5,644C 699.884,645.278 709.884,643.945 719.5,640C 722.821,637.548 725.321,634.382 727,630.5C 728.895,624.66 729.895,618.66 730,612.5C 731.231,611.892 732.564,611.559 734,611.5C 735.973,611.309 737.473,611.976 738.5,613.5C 737.186,637.154 737.186,660.821 738.5,684.5C 735.5,685.833 732.5,685.833 729.5,684.5C 730.657,674.404 727.99,665.57 721.5,658C 711.164,652.766 700.331,651.266 689,653.5C 688.333,677.833 688.333,702.167 689,726.5C 689.903,727.701 691.069,728.535 692.5,729C 707.923,730.068 723.256,729.402 738.5,727C 750.422,723.413 758.922,715.913 764,704.5C 765.825,696.566 767.325,688.566 768.5,680.5C 770.786,679.58 773.119,679.58 775.5,680.5C 774.935,699.728 774.268,718.894 773.5,738C 729.815,738.193 686.148,738.693 642.5,739.5C 641.58,737.119 641.58,734.786 642.5,732.5C 648.838,731.692 655.171,730.859 661.5,730C 662,729.5 662.5,729 663,728.5C 663.667,676.167 663.667,623.833 663,571.5C 662.25,570.874 661.416,570.374 660.5,570C 654.509,569.501 648.509,569.334 642.5,569.5C 641.37,566.803 641.37,564.137 642.5,561.5 Z"/></g>
<g><path style="opacity:0.962" fill="#000000" d="M 856.5,651.5 C 2292.17,651.5 3727.83,651.5 5163.5,651.5C 5163.5,655.833 5163.5,660.167 5163.5,664.5C 3727.83,664.5 2292.17,664.5 856.5,664.5C 856.5,660.167 856.5,655.833 856.5,651.5 Z"/></g>
<g><path style="opacity:0.986" fill="#ea602e" d="M 1736.5,1091.5 C 1739.19,1091.34 1741.85,1091.5 1744.5,1092C 1784.65,1191.78 1824.82,1291.62 1865,1391.5C 1888.08,1448.41 1911.75,1505.08 1936,1561.5C 1938.95,1566.44 1943.11,1569.94 1948.5,1572C 1963.11,1573.72 1977.78,1574.72 1992.5,1575C 1994.91,1580.71 1995.08,1586.54 1993,1592.5C 1990.42,1593.14 1987.75,1593.47 1985,1593.5C 1964.18,1592.57 1943.34,1591.9 1922.5,1591.5C 1882.5,1592.38 1842.5,1592.88 1802.5,1593C 1800.96,1590.07 1800.3,1586.91 1800.5,1583.5C 1800.55,1580.78 1800.88,1578.11 1801.5,1575.5C 1818.54,1574.78 1835.54,1573.62 1852.5,1572C 1856.96,1571.37 1859.63,1568.87 1860.5,1564.5C 1844.4,1518.63 1826.9,1473.29 1808,1428.5C 1806.83,1427.33 1805.67,1426.17 1804.5,1425C 1748.46,1424.17 1692.46,1424.34 1636.5,1425.5C 1615.93,1471.04 1597.59,1517.54 1581.5,1565C 1581.69,1568.86 1583.69,1571.19 1587.5,1572C 1604.44,1573.95 1621.44,1574.78 1638.5,1574.5C 1640,1580.55 1639.83,1586.55 1638,1592.5C 1635.59,1593.14 1633.09,1593.47 1630.5,1593.5C 1586.51,1591.5 1542.51,1591.5 1498.5,1593.5C 1458.84,1592.74 1419.17,1592.24 1379.5,1592C 1373.14,1591.94 1368.64,1589.11 1366,1583.5C 1342.1,1517.69 1315.43,1453.03 1286,1389.5C 1279.61,1377.21 1270.77,1367.04 1259.5,1359C 1255.31,1356.94 1250.98,1355.27 1246.5,1354C 1226.21,1352.39 1205.88,1352.06 1185.5,1353C 1185,1353.5 1184.5,1354 1184,1354.5C 1183.33,1424.17 1183.33,1493.83 1184,1563.5C 1184.73,1567.9 1187.23,1570.73 1191.5,1572C 1208.53,1573.87 1225.53,1574.7 1242.5,1574.5C 1243.9,1580.53 1243.74,1586.53 1242,1592.5C 1239.59,1593.14 1237.09,1593.47 1234.5,1593.5C 1214.68,1592.55 1194.84,1591.89 1175,1591.5C 1136.49,1592.3 1097.99,1592.8 1059.5,1593C 1057.96,1590.07 1057.3,1586.91 1057.5,1583.5C 1057.55,1580.78 1057.88,1578.11 1058.5,1575.5C 1075.54,1574.78 1092.54,1573.62 1109.5,1572C 1113.33,1570.83 1115.83,1568.33 1117,1564.5C 1117.67,1421.17 1117.67,1277.83 1117,1134.5C 1115.75,1129.59 1112.59,1126.76 1107.5,1126C 1091.19,1124.6 1074.86,1123.43 1058.5,1122.5C 1057.38,1117.22 1057.22,1111.89 1058,1106.5C 1059.13,1104.01 1061.13,1103.01 1064,1103.5C 1135.83,1104.85 1207.67,1106.02 1279.5,1107C 1306.97,1109.71 1332.3,1118.38 1355.5,1133C 1387.71,1158.25 1401.21,1191.42 1396,1232.5C 1387.78,1276.05 1363.28,1306.55 1322.5,1324C 1310.76,1328.43 1298.76,1331.93 1286.5,1334.5C 1312.46,1338.74 1332.96,1351.74 1348,1373.5C 1357.02,1387.53 1365.02,1402.19 1372,1417.5C 1389.63,1460.43 1408.63,1502.76 1429,1544.5C 1434.05,1554.45 1440.89,1562.95 1449.5,1570C 1452.36,1571.4 1455.36,1572.4 1458.5,1573C 1481.54,1574.56 1504.54,1574.56 1527.5,1573C 1537.86,1571.9 1544.69,1566.4 1548,1556.5C 1611.93,1401.88 1674.76,1246.88 1736.5,1091.5 Z M 1192.5,1130.5 C 1211.84,1130.33 1231.17,1130.5 1250.5,1131C 1287.91,1135.45 1311.08,1155.95 1320,1192.5C 1335.11,1298.39 1289.77,1342.73 1184,1325.5C 1183.33,1262.83 1183.33,1200.17 1184,1137.5C 1185.85,1133.84 1188.68,1131.51 1192.5,1130.5 Z M 1720.5,1210.5 C 1723.05,1210.56 1724.55,1211.89 1725,1214.5C 1749.42,1274.76 1773.25,1335.26 1796.5,1396C 1796.36,1396.77 1796.02,1397.44 1795.5,1398C 1770.73,1399.15 1745.89,1399.65 1721,1399.5C 1697.17,1399.33 1673.33,1399.17 1649.5,1399C 1646.8,1398.05 1645.97,1396.22 1647,1393.5C 1670.96,1332.25 1695.46,1271.25 1720.5,1210.5 Z"/></g>
<g><path style="opacity:0.988" fill="#ea602e" d="M 732.5,1095.5 C 780.639,1092.19 826.972,1099.69 871.5,1118C 940.408,1150.61 983.575,1204.11 1001,1278.5C 1015.47,1345.38 1007.47,1409.38 977,1470.5C 935.733,1541.76 874.233,1584.26 792.5,1598C 730.247,1607.73 670.913,1598.73 614.5,1571C 542.294,1528.69 502.461,1465.52 495,1381.5C 488.156,1307.83 507.489,1242.16 553,1184.5C 600.974,1131.26 660.807,1101.6 732.5,1095.5 Z M 722.5,1120.5 C 809.817,1118.06 872.317,1156.06 910,1234.5C 933.411,1290.45 940.411,1348.45 931,1408.5C 924.466,1452.22 907.132,1490.88 879,1524.5C 831.542,1572.75 775.042,1587.58 709.5,1569C 653.391,1549.9 613.558,1513.06 590,1458.5C 567.069,1400.93 561.069,1341.59 572,1280.5C 580.196,1231.6 602.363,1190.43 638.5,1157C 663.048,1136.89 691.048,1124.73 722.5,1120.5 Z"/></g>
<g><path style="opacity:0.985" fill="#ea602e" d="M 2789.5,1095.5 C 2837.66,1093.41 2885.33,1097.24 2932.5,1107C 2943.47,1109.41 2954.14,1112.74 2964.5,1117C 2965.33,1117.83 2966.17,1118.67 2967,1119.5C 2968.43,1165.52 2970.09,1211.52 2972,1257.5C 2966.16,1260.96 2960.16,1261.29 2954,1258.5C 2955.14,1175.31 2914.31,1129.48 2831.5,1121C 2780.07,1115.68 2734.07,1128.68 2693.5,1160C 2658.85,1192.45 2637.69,1232.28 2630,1279.5C 2619.84,1339.36 2624.51,1398.03 2644,1455.5C 2678.81,1543.01 2743.31,1582.84 2837.5,1575C 2862.12,1572.24 2885.46,1565.24 2907.5,1554C 2909.04,1552.42 2910.21,1550.59 2911,1548.5C 2911.67,1494.17 2911.67,1439.83 2911,1385.5C 2910.07,1380.78 2907.24,1377.95 2902.5,1377C 2885.88,1375.36 2869.21,1374.19 2852.5,1373.5C 2851.05,1367.44 2851.22,1361.44 2853,1355.5C 2854.74,1354.87 2856.57,1354.54 2858.5,1354.5C 2886.81,1355.98 2915.14,1356.64 2943.5,1356.5C 2967.87,1356.72 2992.2,1356.05 3016.5,1354.5C 3017.5,1354.83 3018.5,1355.17 3019.5,1355.5C 3021.99,1361.72 3021.99,1367.89 3019.5,1374C 3008.76,1374.34 2998.1,1375.34 2987.5,1377C 2982.76,1378.07 2979.6,1380.9 2978,1385.5C 2977.99,1445.22 2977.32,1504.89 2976,1564.5C 2935.87,1581.66 2894.03,1592.83 2850.5,1598C 2815.49,1602.56 2780.49,1602.56 2745.5,1598C 2655.54,1581.7 2595.38,1530.53 2565,1444.5C 2545.63,1377.85 2547.63,1311.85 2571,1246.5C 2601.22,1174.29 2654.05,1127.46 2729.5,1106C 2749.36,1100.86 2769.36,1097.36 2789.5,1095.5 Z"/></g>
<g><path style="opacity:0.988" fill="#000000" d="M 4204.5,1095.5 C 4253.44,1092.1 4300.44,1099.93 4345.5,1119C 4413.1,1151.95 4455.6,1205.12 4473,1278.5C 4487.16,1344.55 4479.49,1407.88 4450,1468.5C 4412.46,1535.72 4355.96,1577.89 4280.5,1595C 4212.21,1609.23 4146.87,1600.89 4084.5,1570C 4013.71,1527.77 3974.54,1465.27 3967,1382.5C 3959.66,1304.88 3980.99,1236.54 4031,1177.5C 4078.48,1128.51 4136.32,1101.18 4204.5,1095.5 Z M 4194.5,1120.5 C 4281.83,1118.06 4344.33,1156.06 4382,1234.5C 4404.49,1288.11 4411.83,1343.77 4404,1401.5C 4398.21,1453.58 4377.04,1498.08 4340.5,1535C 4293.86,1574.8 4240.86,1586.13 4181.5,1569C 4125.39,1549.9 4085.56,1513.06 4062,1458.5C 4040.45,1405.01 4033.78,1349.68 4042,1292.5C 4048.56,1238.87 4071.4,1193.7 4110.5,1157C 4135.05,1136.89 4163.05,1124.73 4194.5,1120.5 Z"/></g>
<g><path style="opacity:0.985" fill="#ea602e" d="M 2001.5,1103.5 C 2040.5,1105.04 2079.5,1105.54 2118.5,1105C 2122.29,1105.23 2125.62,1106.56 2128.5,1109C 2225.41,1229.91 2323.08,1350.25 2421.5,1470C 2422.45,1470.48 2423.45,1470.65 2424.5,1470.5C 2424.67,1358.17 2424.5,1245.83 2424,1133.5C 2421.68,1128.08 2417.51,1125.25 2411.5,1125C 2396.52,1123.91 2381.52,1123.24 2366.5,1123C 2366,1122.5 2365.5,1122 2365,1121.5C 2364.83,1119 2364.67,1116.5 2364.5,1114C 2364.29,1110.43 2364.95,1107.1 2366.5,1104C 2413.49,1106.16 2460.49,1105.99 2507.5,1103.5C 2511.15,1102.7 2513.32,1104.04 2514,1107.5C 2514.78,1112.55 2514.61,1117.55 2513.5,1122.5C 2496.44,1123 2479.44,1124.17 2462.5,1126C 2458.23,1127.27 2455.73,1130.1 2455,1134.5C 2454.67,1290.83 2454.33,1447.17 2454,1603.5C 2450.07,1606.1 2446.07,1606.1 2442,1603.5C 2330.05,1464.54 2217.71,1325.88 2105,1187.5C 2103.54,1184.79 2101.54,1184.12 2099,1185.5C 2098.33,1310.5 2098.33,1435.5 2099,1560.5C 2099.18,1566.34 2102.01,1570.17 2107.5,1572C 2124.11,1573.76 2140.77,1574.76 2157.5,1575C 2159.91,1580.71 2160.08,1586.54 2158,1592.5C 2156.65,1593.7 2154.98,1594.37 2153,1594.5C 2107,1591.83 2061,1591.83 2015,1594.5C 2013.5,1594.17 2012,1593.83 2010.5,1593.5C 2007.92,1587.29 2007.92,1581.12 2010.5,1575C 2027.23,1574.76 2043.89,1573.76 2060.5,1572C 2065.52,1570.31 2068.36,1566.81 2069,1561.5C 2069.67,1424.17 2069.67,1286.83 2069,1149.5C 2067.14,1136.65 2059.98,1128.48 2047.5,1125C 2032.19,1123.93 2016.85,1123.26 2001.5,1123C 1998.86,1116.52 1998.86,1110.02 2001.5,1103.5 Z"/></g>
<g><path style="opacity:0.989" fill="#ea602e" d="M 3061.5,1103.5 C 3078.82,1104.17 3096.16,1104.67 3113.5,1105C 3203.5,1105.33 3293.5,1105.67 3383.5,1106C 3384.13,1106.75 3384.63,1107.58 3385,1108.5C 3385.24,1155.21 3386.24,1201.88 3388,1248.5C 3381.3,1250.75 3374.46,1251.08 3367.5,1249.5C 3368.2,1227.85 3366.03,1206.52 3361,1185.5C 3351.24,1158.75 3332.41,1142.25 3304.5,1136C 3294.64,1133.5 3284.64,1131.83 3274.5,1131C 3248.17,1130.33 3221.83,1130.33 3195.5,1131C 3191.75,1132.42 3188.92,1134.92 3187,1138.5C 3185.35,1201.46 3185.02,1264.46 3186,1327.5C 3186.47,1328.93 3187.3,1330.1 3188.5,1331C 3212.02,1333.7 3235.35,1332.37 3258.5,1327C 3283.4,1318.4 3297.24,1300.9 3300,1274.5C 3301.51,1264.55 3302.51,1254.55 3303,1244.5C 3310.17,1241.5 3317,1242 3323.5,1246C 3319.5,1310.8 3319.5,1375.64 3323.5,1440.5C 3322.62,1441.97 3321.29,1442.8 3319.5,1443C 3313.8,1443.69 3308.13,1443.52 3302.5,1442.5C 3302.75,1425.41 3300.25,1408.75 3295,1392.5C 3287.59,1373.87 3274.09,1362.37 3254.5,1358C 3248.56,1356.61 3242.56,1355.61 3236.5,1355C 3220.5,1354.33 3204.5,1354.33 3188.5,1355C 3188,1355.5 3187.5,1356 3187,1356.5C 3185.84,1389.75 3185.34,1423.08 3185.5,1456.5C 3185.67,1489.17 3185.83,1521.83 3186,1554.5C 3186.85,1562.01 3191.01,1566.18 3198.5,1567C 3232.18,1567.89 3265.85,1567.56 3299.5,1566C 3331.39,1563.47 3358.22,1550.64 3380,1527.5C 3391.78,1512.5 3399.12,1495.5 3402,1476.5C 3403.83,1461.87 3405.33,1447.2 3406.5,1432.5C 3412.8,1430.96 3418.97,1431.3 3425,1433.5C 3424.03,1485.49 3423.03,1537.49 3422,1589.5C 3421.69,1590.31 3421.19,1590.97 3420.5,1591.5C 3303.53,1592.18 3186.53,1592.85 3069.5,1593.5C 3066.83,1593.17 3064.17,1592.83 3061.5,1592.5C 3058.86,1586.3 3058.86,1580.14 3061.5,1574C 3078.57,1573.9 3095.57,1572.9 3112.5,1571C 3117.06,1569.07 3119.56,1565.57 3120,1560.5C 3120.67,1419.17 3120.67,1277.83 3120,1136.5C 3119.29,1130.78 3116.12,1127.28 3110.5,1126C 3094.23,1124.21 3077.9,1123.21 3061.5,1123C 3058.99,1116.55 3058.99,1110.05 3061.5,1103.5 Z"/></g>
<g><path style="opacity:0.991" fill="#000000" d="M 3539.5,1103.5 C 3609.48,1105.11 3679.48,1105.95 3749.5,1106C 3781.48,1107.33 3810.82,1116.66 3837.5,1134C 3869.61,1160.3 3882.44,1194.14 3876,1235.5C 3866.8,1278.71 3841.64,1308.54 3800.5,1325C 3789.85,1329.25 3778.85,1332.08 3767.5,1333.5C 3767.5,1334.5 3767.5,1335.5 3767.5,1336.5C 3802.84,1337.67 3834.5,1348.83 3862.5,1370C 3890.46,1396.87 3901.96,1429.7 3897,1468.5C 3890.56,1511.93 3868.06,1544.1 3829.5,1565C 3793.63,1582.8 3755.63,1591.8 3715.5,1592C 3659.33,1592.2 3603.16,1592.7 3547,1593.5C 3544.5,1593.17 3542,1592.83 3539.5,1592.5C 3536.86,1586.3 3536.86,1580.14 3539.5,1574C 3556.57,1573.9 3573.57,1572.9 3590.5,1571C 3595.06,1569.07 3597.56,1565.57 3598,1560.5C 3598.67,1419.17 3598.67,1277.83 3598,1136.5C 3597.29,1130.78 3594.12,1127.28 3588.5,1126C 3572.23,1124.21 3555.9,1123.21 3539.5,1123C 3536.92,1116.53 3536.92,1110.03 3539.5,1103.5 Z M 3672.5,1130.5 C 3692.5,1130.33 3712.5,1130.5 3732.5,1131C 3768.11,1135.94 3790.61,1155.77 3800,1190.5C 3806.23,1216.59 3805.9,1242.59 3799,1268.5C 3787.44,1304.87 3762.61,1324.37 3724.5,1327C 3705.83,1327.67 3687.17,1327.67 3668.5,1327C 3666.67,1326.73 3665.17,1325.89 3664,1324.5C 3663.33,1262.83 3663.33,1201.17 3664,1139.5C 3665.18,1134.85 3668.01,1131.85 3672.5,1130.5 Z M 3666.5,1352.5 C 3689.5,1352.33 3712.5,1352.5 3735.5,1353C 3784.83,1361.33 3814,1390.17 3823,1439.5C 3827.97,1473.34 3820.97,1504.34 3802,1532.5C 3782.34,1554.91 3757.5,1566.41 3727.5,1567C 3710.5,1567.67 3693.5,1567.67 3676.5,1567C 3669.37,1566.87 3665.21,1563.37 3664,1556.5C 3663.33,1489.5 3663.33,1422.5 3664,1355.5C 3664.7,1354.31 3665.53,1353.31 3666.5,1352.5 Z"/></g>
<g><path style="opacity:0.984" fill="#000000" d="M 4526.5,1103.5 C 4588.17,1105.97 4649.84,1106.14 4711.5,1104C 4712.13,1104.75 4712.63,1105.58 4713,1106.5C 4713.81,1112.08 4713.64,1117.58 4712.5,1123C 4698.81,1123.28 4685.15,1123.94 4671.5,1125C 4667.17,1125.49 4663.84,1127.49 4661.5,1131C 4691.86,1182.22 4723.36,1232.72 4756,1282.5C 4758.97,1285.27 4761.63,1284.93 4764,1281.5C 4797.25,1232.68 4829.25,1183.02 4860,1132.5C 4860.44,1127.93 4858.27,1125.43 4853.5,1125C 4838.52,1123.91 4823.52,1123.24 4808.5,1123C 4806.97,1120.24 4806.31,1117.24 4806.5,1114C 4806.36,1110.47 4807.02,1107.13 4808.5,1104C 4855.99,1106.16 4903.49,1106 4951,1103.5C 4952.83,1103.83 4954.67,1104.17 4956.5,1104.5C 4959.09,1110.72 4959.09,1116.89 4956.5,1123C 4942.41,1123.04 4928.41,1124.04 4914.5,1126C 4907.83,1129 4902,1133.17 4897,1138.5C 4856.01,1197.14 4816.51,1256.8 4778.5,1317.5C 4827.55,1399.7 4878.39,1480.7 4931,1560.5C 4935.06,1565.9 4940.23,1569.74 4946.5,1572C 4962.8,1574.03 4979.14,1574.7 4995.5,1574C 4998.06,1580.29 4998.06,1586.63 4995.5,1593C 4970.18,1592.67 4944.84,1592.17 4919.5,1591.5C 4879.83,1592.34 4840.16,1592.84 4800.5,1593C 4798.95,1589.9 4798.29,1586.57 4798.5,1583C 4798.53,1580.25 4798.86,1577.58 4799.5,1575C 4815.23,1574.79 4830.9,1573.79 4846.5,1572C 4850.18,1570.68 4851.68,1568.18 4851,1564.5C 4815.01,1502.52 4777.01,1441.85 4737,1382.5C 4695.68,1441.13 4656.34,1501.13 4619,1562.5C 4617.68,1569.19 4620.51,1572.69 4627.5,1573C 4641.24,1574.02 4654.9,1574.52 4668.5,1574.5C 4670.04,1580.8 4669.7,1586.97 4667.5,1593C 4620.02,1591.53 4572.52,1591.69 4525,1593.5C 4520.83,1593.17 4516.67,1592.83 4512.5,1592.5C 4509.96,1586.62 4509.96,1580.79 4512.5,1575C 4527.84,1574.57 4543.18,1573.9 4558.5,1573C 4566.51,1571.74 4573.35,1568.24 4579,1562.5C 4626.62,1492.75 4673.12,1422.25 4718.5,1351C 4674.8,1279.09 4629.96,1207.92 4584,1137.5C 4579.86,1131.69 4574.36,1127.86 4567.5,1126C 4553.92,1124.1 4540.25,1123.1 4526.5,1123C 4523.91,1116.53 4523.91,1110.03 4526.5,1103.5 Z"/></g>
<g><path style="opacity:0.955" fill="#000000" d="M 3136.5,1893.5 C 3139.59,1893.63 3141.43,1895.29 3142,1898.5C 3161.94,1948.99 3182.28,1999.33 3203,2049.5C 3204.23,2051.73 3206.06,2053.23 3208.5,2054C 3213.2,2054.17 3217.87,2054.67 3222.5,2055.5C 3223.25,2057.42 3223.25,2059.42 3222.5,2061.5C 3201.16,2061.67 3179.83,2061.5 3158.5,2061C 3157.17,2059 3157.17,2057 3158.5,2055C 3163.83,2054.67 3169.17,2054.33 3174.5,2054C 3176.18,2053.65 3177.18,2052.65 3177.5,2051C 3172.08,2035.74 3166.08,2020.74 3159.5,2006C 3140.83,2005.33 3122.17,2005.33 3103.5,2006C 3096.41,2021.42 3090.41,2037.26 3085.5,2053.5C 3091.79,2054.37 3098.12,2054.71 3104.5,2054.5C 3104.5,2056.83 3104.5,2059.17 3104.5,2061.5C 3087.17,2061.5 3069.83,2061.5 3052.5,2061.5C 3052.5,2059.17 3052.5,2056.83 3052.5,2054.5C 3057.84,2054.67 3063.18,2054.5 3068.5,2054C 3069.93,2053.53 3071.1,2052.7 3072,2051.5C 3094,1999.01 3115.5,1946.34 3136.5,1893.5 Z M 3131.5,1934.5 C 3140.3,1954.38 3148.63,1974.55 3156.5,1995C 3140.32,1996.48 3123.99,1996.98 3107.5,1996.5C 3114.91,1975.6 3122.91,1954.94 3131.5,1934.5 Z"/></g>
<g><path style="opacity:0.955" fill="#000000" d="M 3438.5,1893.5 C 3440.91,1893.14 3442.41,1894.14 3443,1896.5C 3463.17,1948.51 3484.17,2000.17 3506,2051.5C 3507.17,2052.89 3508.67,2053.73 3510.5,2054C 3515.15,2054.5 3519.82,2054.67 3524.5,2054.5C 3524.5,2056.83 3524.5,2059.17 3524.5,2061.5C 3502.83,2061.5 3481.17,2061.5 3459.5,2061.5C 3459.5,2059.17 3459.5,2056.83 3459.5,2054.5C 3465.18,2054.67 3470.84,2054.5 3476.5,2054C 3477.91,2053.63 3478.91,2052.8 3479.5,2051.5C 3474.16,2036.3 3468.32,2021.3 3462,2006.5C 3452.57,2005.84 3443.07,2005.51 3433.5,2005.5C 3423.93,2005.51 3414.43,2005.84 3405,2006.5C 3398.61,2021.28 3392.78,2036.28 3387.5,2051.5C 3387.82,2052.65 3388.48,2053.48 3389.5,2054C 3395.16,2054.5 3400.82,2054.67 3406.5,2054.5C 3406.5,2056.83 3406.5,2059.17 3406.5,2061.5C 3389.17,2061.5 3371.83,2061.5 3354.5,2061.5C 3354.5,2059.17 3354.5,2056.83 3354.5,2054.5C 3359.51,2054.67 3364.51,2054.5 3369.5,2054C 3371.33,2053.73 3372.83,2052.89 3374,2051.5C 3395.79,1998.92 3417.29,1946.25 3438.5,1893.5 Z M 3433.5,1934.5 C 3442.47,1954.73 3450.47,1975.39 3457.5,1996.5C 3441.5,1996.5 3425.5,1996.5 3409.5,1996.5C 3416.51,1975.46 3424.51,1954.8 3433.5,1934.5 Z"/></g>
<g><path style="opacity:0.963" fill="#000000" d="M 2417.5,1894.5 C 2430.89,1894.34 2444.23,1895.17 2457.5,1897C 2464.31,1897.83 2470.81,1899.66 2477,1902.5C 2477.43,1917.71 2478.27,1932.87 2479.5,1948C 2479.36,1948.77 2479.02,1949.44 2478.5,1950C 2476.53,1950.5 2474.53,1950.66 2472.5,1950.5C 2472.81,1922.64 2459.14,1907.14 2431.5,1904C 2391.52,1903.1 2369.02,1922.6 2364,1962.5C 2360.95,1985.84 2364.95,2007.84 2376,2028.5C 2393.85,2052.67 2417.35,2060.51 2446.5,2052C 2449.83,2050.67 2453.17,2049.33 2456.5,2048C 2457.13,2047.25 2457.63,2046.42 2458,2045.5C 2458.67,2027.83 2458.67,2010.17 2458,1992.5C 2457.35,1990.28 2455.85,1989.11 2453.5,1989C 2448.47,1988.83 2443.47,1988.33 2438.5,1987.5C 2437.17,1985.83 2437.17,1984.17 2438.5,1982.5C 2457.16,1981.33 2475.82,1981.17 2494.5,1982C 2495.83,1984 2495.83,1986 2494.5,1988C 2491.5,1988.33 2488.5,1988.67 2485.5,1989C 2483.67,1989.27 2482.17,1990.11 2481,1991.5C 2480.83,2011.84 2480.33,2032.17 2479.5,2052.5C 2454.69,2062.4 2429.02,2065.9 2402.5,2063C 2365.55,2055.39 2344.39,2032.89 2339,1995.5C 2334.44,1963.5 2343.61,1936.34 2366.5,1914C 2381.71,1902.65 2398.71,1896.15 2417.5,1894.5 Z"/></g>
<g><path style="opacity:0.963" fill="#000000" d="M 3890.5,1894.5 C 3920.71,1892.2 3945.88,1902.2 3966,1924.5C 3983.11,1950.15 3987.11,1977.82 3978,2007.5C 3962.95,2044.51 3935.28,2063.51 3895,2064.5C 3842.18,2061.85 3814.02,2034.18 3810.5,1981.5C 3813.65,1930.69 3840.32,1901.69 3890.5,1894.5 Z M 3887.5,1903.5 C 3922.19,1904.01 3944.36,1921.01 3954,1954.5C 3961.73,1983.05 3957.73,2009.72 3942,2034.5C 3917.71,2059.55 3891.21,2062.05 3862.5,2042C 3846.19,2026.78 3837.36,2007.95 3836,1985.5C 3834.19,1966.04 3837.85,1947.71 3847,1930.5C 3856.67,1915.59 3870.17,1906.59 3887.5,1903.5 Z"/></g>
<g><path style="opacity:0.963" fill="#000000" d="M 4468.5,1894.5 C 4498.71,1892.2 4523.88,1902.2 4544,1924.5C 4561.11,1950.15 4565.11,1977.82 4556,2007.5C 4540.95,2044.51 4513.28,2063.51 4473,2064.5C 4420.18,2061.85 4392.02,2034.18 4388.5,1981.5C 4391.65,1930.69 4418.32,1901.69 4468.5,1894.5 Z M 4465.5,1903.5 C 4500.19,1904.01 4522.36,1921.01 4532,1954.5C 4539.73,1983.04 4535.73,2009.71 4520,2034.5C 4495.71,2059.55 4469.21,2062.05 4440.5,2042C 4424.19,2026.78 4415.36,2007.95 4414,1985.5C 4412.19,1966.04 4415.85,1947.71 4425,1930.5C 4434.67,1915.59 4448.17,1906.59 4465.5,1903.5 Z"/></g>
<g><path style="opacity:0.964" fill="#000000" d="M 5058.5,1894.5 C 5075.34,1894.19 5092,1895.69 5108.5,1899C 5111.9,1899.58 5115.07,1900.74 5118,1902.5C 5118.68,1917.01 5119.51,1931.51 5120.5,1946C 5120.44,1947.44 5120.11,1948.77 5119.5,1950C 5117.53,1950.5 5115.53,1950.66 5113.5,1950.5C 5115.15,1929.6 5106.48,1915.1 5087.5,1907C 5060.67,1898.91 5037.84,1905.08 5019,1925.5C 5006.69,1945.06 5002.02,1966.39 5005,1989.5C 5006.38,2012.04 5015.55,2030.54 5032.5,2045C 5054.39,2058.45 5076.56,2058.95 5099,2046.5C 5099.67,2028.17 5099.67,2009.83 5099,1991.5C 5097.83,1990.11 5096.33,1989.27 5094.5,1989C 5089.51,1988.5 5084.51,1988.33 5079.5,1988.5C 5079.5,1986.17 5079.5,1983.83 5079.5,1981.5C 5098.5,1981.5 5117.5,1981.5 5136.5,1981.5C 5136.5,1983.83 5136.5,1986.17 5136.5,1988.5C 5132.06,1988.21 5127.73,1988.71 5123.5,1990C 5122.87,1990.75 5122.37,1991.58 5122,1992.5C 5122.15,2012.9 5121.32,2033.06 5119.5,2053C 5093.28,2063.32 5066.28,2066.32 5038.5,2062C 5006.28,2053.73 4987.11,2033.23 4981,2000.5C 4975.65,1971.22 4981.98,1944.89 5000,1921.5C 5016.19,1905.27 5035.69,1896.27 5058.5,1894.5 Z"/></g>
<g><path style="opacity:0.976" fill="#000000" d="M 2016.5,1897.5 C 2073.52,1898.48 2130.52,1898.48 2187.5,1897.5C 2187.92,1899.67 2187.92,1901.67 2187.5,1903.5C 2181.5,1904.33 2175.5,1905.17 2169.5,1906C 2168.87,1906.75 2168.37,1907.58 2168,1908.5C 2167.33,1955.17 2167.33,2001.83 2168,2048.5C 2168.5,2050.33 2169.67,2051.5 2171.5,2052C 2185.94,2053.1 2200.27,2052.43 2214.5,2050C 2224.81,2046.68 2232.31,2040.18 2237,2030.5C 2239.17,2022.99 2240.5,2015.32 2241,2007.5C 2242.8,2006.23 2244.63,2006.23 2246.5,2007.5C 2246.83,2012.83 2247.17,2018.17 2247.5,2023.5C 2246.98,2036.16 2246.65,2048.83 2246.5,2061.5C 2206.17,2061.5 2165.83,2061.5 2125.5,2061.5C 2125.5,2059.17 2125.5,2056.83 2125.5,2054.5C 2129.85,2054.67 2134.18,2054.5 2138.5,2054C 2141.01,2053.91 2143.17,2053.07 2145,2051.5C 2145.67,2003.5 2145.67,1955.5 2145,1907.5C 2142.83,1905.88 2140.33,1905.05 2137.5,1905C 2133.51,1904.5 2129.51,1904.33 2125.5,1904.5C 2125.52,1918.52 2125.68,1932.52 2126,1946.5C 2123.67,1947.83 2121.33,1947.83 2119,1946.5C 2119.21,1937.9 2117.87,1929.57 2115,1921.5C 2109.79,1913.31 2102.29,1908.81 2092.5,1908C 2081.59,1907.18 2070.76,1907.35 2060,1908.5C 2058.87,1919.6 2058.37,1930.77 2058.5,1942C 2058.51,1952.41 2058.84,1962.74 2059.5,1973C 2083.96,1978.65 2096.62,1969.15 2097.5,1944.5C 2099.83,1944.5 2102.17,1944.5 2104.5,1944.5C 2103.17,1966.83 2103.17,1989.17 2104.5,2011.5C 2102.17,2011.5 2099.83,2011.5 2097.5,2011.5C 2098.44,1990.44 2088.44,1980.44 2067.5,1981.5C 2064.39,1981.56 2061.55,1982.23 2059,1983.5C 2058.33,2005.83 2058.33,2028.17 2059,2050.5C 2059.5,2052.33 2060.67,2053.5 2062.5,2054C 2067.86,2054.17 2073.2,2054.67 2078.5,2055.5C 2079.25,2057.42 2079.25,2059.42 2078.5,2061.5C 2057.83,2061.5 2037.17,2061.5 2016.5,2061.5C 2016.5,2059.17 2016.5,2056.83 2016.5,2054.5C 2022.18,2054.67 2027.84,2054.5 2033.5,2054C 2034.67,2053.5 2035.5,2052.67 2036,2051.5C 2036.67,2003.83 2036.67,1956.17 2036,1908.5C 2035.5,1907.33 2034.67,1906.5 2033.5,1906C 2027.81,1905.63 2022.14,1905.13 2016.5,1904.5C 2016.5,1902.17 2016.5,1899.83 2016.5,1897.5 Z"/></g>
<g><path style="opacity:0.952" fill="#000000" d="M 2260.5,1897.5 C 2280.83,1898.59 2301.16,1898.75 2321.5,1898C 2322.42,1900.04 2322.76,1902.21 2322.5,1904.5C 2316.05,1904.23 2309.72,1904.9 2303.5,1906.5C 2302.33,1955.16 2302.17,2003.83 2303,2052.5C 2303.75,2053.13 2304.58,2053.63 2305.5,2054C 2311.16,2054.5 2316.82,2054.67 2322.5,2054.5C 2322.76,2056.79 2322.42,2058.96 2321.5,2061C 2300.84,2061.5 2280.17,2061.67 2259.5,2061.5C 2259.5,2059.17 2259.5,2056.83 2259.5,2054.5C 2265.18,2054.67 2270.84,2054.5 2276.5,2054C 2277.42,2053.63 2278.25,2053.13 2279,2052.5C 2279.67,2004.17 2279.67,1955.83 2279,1907.5C 2276.83,1905.88 2274.33,1905.05 2271.5,1905C 2267.51,1904.5 2263.51,1904.33 2259.5,1904.5C 2259.3,1902.05 2259.63,1899.72 2260.5,1897.5 Z"/></g>
<g><path style="opacity:0.967" fill="#000000" d="M 2508.5,1897.5 C 2528.83,1898.59 2549.16,1898.75 2569.5,1898C 2570.42,1900.04 2570.76,1902.21 2570.5,1904.5C 2564.05,1904.23 2557.72,1904.9 2551.5,1906.5C 2550.5,1928.49 2550.17,1950.49 2550.5,1972.5C 2580.5,1972.67 2610.5,1972.5 2640.5,1972C 2641.66,1950.91 2641.83,1929.74 2641,1908.5C 2640.63,1907.58 2640.13,1906.75 2639.5,1906C 2633.5,1905.17 2627.5,1904.33 2621.5,1903.5C 2620.17,1901.83 2620.17,1900.17 2621.5,1898.5C 2642.12,1898.74 2662.79,1898.41 2683.5,1897.5C 2683.5,1899.83 2683.5,1902.17 2683.5,1904.5C 2679.49,1904.33 2675.49,1904.5 2671.5,1905C 2668.67,1905.05 2666.17,1905.88 2664,1907.5C 2663.33,1955.5 2663.33,2003.5 2664,2051.5C 2664.77,2052.85 2665.94,2053.68 2667.5,2054C 2672.82,2054.5 2678.16,2054.67 2683.5,2054.5C 2683.5,2056.83 2683.5,2059.17 2683.5,2061.5C 2662.82,2061.83 2642.16,2061.5 2621.5,2060.5C 2620.17,2058.83 2620.17,2057.17 2621.5,2055.5C 2626.8,2054.67 2632.14,2054.17 2637.5,2054C 2639.33,2053.5 2640.5,2052.33 2641,2050.5C 2641.83,2027.59 2641.66,2004.76 2640.5,1982C 2610.5,1981.5 2580.5,1981.33 2550.5,1981.5C 2550.33,2005.17 2550.5,2028.84 2551,2052.5C 2551.75,2053.13 2552.58,2053.63 2553.5,2054C 2559.16,2054.5 2564.82,2054.67 2570.5,2054.5C 2570.76,2056.79 2570.42,2058.96 2569.5,2061C 2548.84,2061.5 2528.17,2061.67 2507.5,2061.5C 2507.5,2059.17 2507.5,2056.83 2507.5,2054.5C 2513.18,2054.67 2518.84,2054.5 2524.5,2054C 2525.42,2053.63 2526.25,2053.13 2527,2052.5C 2527.67,2004.17 2527.67,1955.83 2527,1907.5C 2524.83,1905.88 2522.33,1905.05 2519.5,1905C 2515.51,1904.5 2511.51,1904.33 2507.5,1904.5C 2507.3,1902.05 2507.63,1899.72 2508.5,1897.5 Z"/></g>
<g><path style="opacity:0.975" fill="#000000" d="M 2888.5,1897.5 C 2917.49,1898.27 2946.49,1898.77 2975.5,1899C 3014.46,1903.96 3036.96,1925.79 3043,1964.5C 3046.88,1994.86 3038.05,2020.69 3016.5,2042C 3003.49,2051.9 2988.83,2057.9 2972.5,2060C 2944.52,2061.74 2916.52,2061.91 2888.5,2060.5C 2887.17,2058.83 2887.17,2057.17 2888.5,2055.5C 2894.51,2054.74 2900.51,2053.91 2906.5,2053C 2907.13,2052.25 2907.63,2051.42 2908,2050.5C 2908.67,2003.5 2908.67,1956.5 2908,1909.5C 2907.68,1907.94 2906.85,1906.77 2905.5,1906C 2899.75,1905.85 2894.08,1905.19 2888.5,1904C 2887.67,1901.92 2887.67,1899.75 2888.5,1897.5 Z M 2932.5,1907.5 C 2944.5,1907.33 2956.5,1907.5 2968.5,1908C 2992.86,1912.36 3008.36,1926.52 3015,1950.5C 3020.39,1973.13 3019.39,1995.47 3012,2017.5C 3005.58,2034.26 2993.74,2045.09 2976.5,2050C 2962.27,2052.43 2947.94,2053.1 2933.5,2052C 2932.33,2051.5 2931.5,2050.67 2931,2049.5C 2930.33,2002.83 2930.33,1956.17 2931,1909.5C 2931.72,1908.96 2932.22,1908.29 2932.5,1907.5 Z"/></g>
<g><path style="opacity:0.963" fill="#000000" d="M 3589.5,1897.5 C 3603.06,1898.01 3616.56,1898.68 3630,1899.5C 3648.7,1940.56 3668.2,1981.23 3688.5,2021.5C 3708.2,1982.11 3727.36,1942.44 3746,1902.5C 3746.49,1901.21 3746.66,1899.87 3746.5,1898.5C 3759.69,1898.77 3772.85,1898.43 3786,1897.5C 3790.27,1898.19 3791.43,1900.52 3789.5,1904.5C 3783.81,1905.21 3778.15,1905.87 3772.5,1906.5C 3771.8,1953.52 3772.64,2000.52 3775,2047.5C 3774.92,2050.85 3776.42,2053.01 3779.5,2054C 3784.5,2054.33 3789.5,2054.67 3794.5,2055C 3795.83,2057 3795.83,2059 3794.5,2061C 3773.83,2061.67 3753.17,2061.67 3732.5,2061C 3731.58,2058.96 3731.24,2056.79 3731.5,2054.5C 3736.84,2054.67 3742.18,2054.5 3747.5,2054C 3749.33,2053.5 3750.5,2052.33 3751,2050.5C 3750.54,2008.83 3749.54,1967.16 3748,1925.5C 3726.45,1969.26 3705.45,2013.26 3685,2057.5C 3683,2058.83 3681,2058.83 3679,2057.5C 3659.33,2016.17 3639.67,1974.83 3620,1933.5C 3617.42,1972.74 3616.09,2012.07 3616,2051.5C 3616.9,2052.7 3618.07,2053.53 3619.5,2054C 3624.5,2054.33 3629.5,2054.67 3634.5,2055C 3635.58,2056.73 3635.74,2058.56 3635,2060.5C 3618.24,2061.49 3601.41,2061.83 3584.5,2061.5C 3584.5,2059.17 3584.5,2056.83 3584.5,2054.5C 3589.84,2054.67 3595.18,2054.5 3600.5,2054C 3602.33,2053.5 3603.5,2052.33 3604,2050.5C 3605.69,2008.01 3607.19,1965.51 3608.5,1923C 3611.66,1907.16 3605.33,1901.16 3589.5,1905C 3588.22,1902.5 3588.22,1900 3589.5,1897.5 Z"/></g>
<g><path style="opacity:0.96" fill="#000000" d="M 3998.5,1897.5 C 4010,1898.73 4021.5,1898.73 4033,1897.5C 4035.59,1897.57 4038.09,1898.07 4040.5,1899C 4073.33,1939.17 4106.17,1979.33 4139,2019.5C 4139.67,1982.17 4139.67,1944.83 4139,1907.5C 4136.83,1905.88 4134.33,1905.05 4131.5,1905C 4127.51,1904.5 4123.51,1904.33 4119.5,1904.5C 4119.5,1902.17 4119.5,1899.83 4119.5,1897.5C 4134.33,1898.8 4149.16,1898.8 4164,1897.5C 4169.35,1896.85 4171.51,1899.19 4170.5,1904.5C 4164.05,1904.23 4157.72,1904.9 4151.5,1906.5C 4150.5,1959.5 4150.17,2012.5 4150.5,2065.5C 4147.96,2065.9 4145.79,2065.23 4144,2063.5C 4107.15,2017.13 4069.81,1971.13 4032,1925.5C 4031.33,1967.5 4031.33,2009.5 4032,2051.5C 4032.77,2052.85 4033.94,2053.68 4035.5,2054C 4040.82,2054.5 4046.16,2054.67 4051.5,2054.5C 4051.5,2056.83 4051.5,2059.17 4051.5,2061.5C 4034.82,2061.83 4018.15,2061.5 4001.5,2060.5C 4000.17,2058.83 4000.17,2057.17 4001.5,2055.5C 4006.8,2054.67 4012.14,2054.17 4017.5,2054C 4019.33,2053.5 4020.5,2052.33 4021,2050.5C 4021.67,2004.83 4021.67,1959.17 4021,1913.5C 4020.5,1909.98 4018.66,1907.48 4015.5,1906C 4009.88,1904.95 4004.22,1904.28 3998.5,1904C 3997.39,1901.88 3997.39,1899.71 3998.5,1897.5 Z"/></g>
<g><path style="opacity:0.952" fill="#000000" d="M 4173.5,1897.5 C 4192.16,1898.8 4210.83,1898.8 4229.5,1897.5C 4235.18,1896.54 4237.51,1898.87 4236.5,1904.5C 4230.05,1904.23 4223.72,1904.9 4217.5,1906.5C 4216.33,1955.16 4216.17,2003.83 4217,2052.5C 4217.75,2053.13 4218.58,2053.63 4219.5,2054C 4225.16,2054.5 4230.82,2054.67 4236.5,2054.5C 4236.76,2056.79 4236.42,2058.96 4235.5,2061C 4214.84,2061.5 4194.17,2061.67 4173.5,2061.5C 4173.5,2059.17 4173.5,2056.83 4173.5,2054.5C 4179.18,2054.67 4184.84,2054.5 4190.5,2054C 4191.42,2053.63 4192.25,2053.13 4193,2052.5C 4193.67,2004.17 4193.67,1955.83 4193,1907.5C 4190.83,1905.88 4188.33,1905.05 4185.5,1905C 4181.51,1904.5 4177.51,1904.33 4173.5,1904.5C 4173.5,1902.17 4173.5,1899.83 4173.5,1897.5 Z"/></g>
<g><path style="opacity:0.956" fill="#000000" d="M 4577.5,1897.5 C 4602.15,1898.25 4626.82,1898.75 4651.5,1899C 4682.94,1903.4 4694.77,1920.9 4687,1951.5C 4679.7,1964.8 4668.53,1972.63 4653.5,1975C 4661.74,1975.87 4668.24,1979.71 4673,1986.5C 4676.51,1991.51 4679.51,1996.84 4682,2002.5C 4688.43,2018.12 4695.43,2033.45 4703,2048.5C 4704.87,2050.71 4707.04,2052.54 4709.5,2054C 4715.08,2054.19 4720.58,2054.69 4726,2055.5C 4731.42,2054.69 4736.92,2054.19 4742.5,2054C 4743.42,2053.63 4744.25,2053.13 4745,2052.5C 4745.83,2003.83 4745.67,1955.16 4744.5,1906.5C 4738.28,1904.9 4731.95,1904.23 4725.5,1904.5C 4725.34,1902.47 4725.5,1900.47 4726,1898.5C 4727.23,1897.89 4728.56,1897.56 4730,1897.5C 4749.16,1898.53 4768.33,1898.7 4787.5,1898C 4788.42,1900.04 4788.76,1902.21 4788.5,1904.5C 4784.49,1904.33 4780.49,1904.5 4776.5,1905C 4773.67,1905.05 4771.17,1905.88 4769,1907.5C 4768.33,1955.83 4768.33,2004.17 4769,2052.5C 4769.75,2053.13 4770.58,2053.63 4771.5,2054C 4777.16,2054.5 4782.82,2054.67 4788.5,2054.5C 4788.5,2056.83 4788.5,2059.17 4788.5,2061.5C 4753.03,2061.19 4717.69,2061.02 4682.5,2061C 4680.19,2059.89 4678.69,2058.06 4678,2055.5C 4670.22,2032.81 4660.88,2010.81 4650,1989.5C 4647.41,1986.24 4644.24,1983.74 4640.5,1982C 4633.51,1981.5 4626.51,1981.33 4619.5,1981.5C 4619.33,2005.17 4619.5,2028.84 4620,2052.5C 4620.75,2053.13 4621.58,2053.63 4622.5,2054C 4627.83,2054.33 4633.17,2054.67 4638.5,2055C 4639.77,2056.8 4639.77,2058.63 4638.5,2060.5C 4617.84,2061.5 4597.18,2061.83 4576.5,2061.5C 4576.5,2059.17 4576.5,2056.83 4576.5,2054.5C 4582.18,2054.67 4587.84,2054.5 4593.5,2054C 4594.42,2053.63 4595.25,2053.13 4596,2052.5C 4596.67,2004.17 4596.67,1955.83 4596,1907.5C 4595.25,1906.87 4594.42,1906.37 4593.5,1906C 4587.84,1905.5 4582.18,1905.33 4576.5,1905.5C 4576.28,1902.72 4576.61,1900.05 4577.5,1897.5 Z M 4621.5,1907.5 C 4628.84,1907.33 4636.17,1907.5 4643.5,1908C 4652.09,1909.86 4658.25,1914.7 4662,1922.5C 4671.45,1959.27 4657.28,1975.94 4619.5,1972.5C 4618.86,1950.6 4619.53,1928.94 4621.5,1907.5 Z"/></g>
<g><path style="opacity:0.96" fill="#000000" d="M 4795.5,1897.5 C 4807,1898.73 4818.5,1898.73 4830,1897.5C 4832.9,1897.64 4835.73,1898.14 4838.5,1899C 4870.62,1939.46 4903.12,1979.62 4936,2019.5C 4936.83,1981.83 4936.67,1944.16 4935.5,1906.5C 4929.28,1904.9 4922.95,1904.23 4916.5,1904.5C 4916.34,1902.47 4916.5,1900.47 4917,1898.5C 4918.23,1897.89 4919.56,1897.56 4921,1897.5C 4936.16,1898.51 4951.33,1898.67 4966.5,1898C 4967.42,1900.04 4967.76,1902.21 4967.5,1904.5C 4963.49,1904.33 4959.49,1904.5 4955.5,1905C 4952.67,1905.05 4950.17,1905.88 4948,1907.5C 4947.5,1960.17 4947.33,2012.83 4947.5,2065.5C 4945.53,2065.74 4943.7,2065.41 4942,2064.5C 4905.05,2017.62 4867.39,1971.28 4829,1925.5C 4828.33,1967.17 4828.33,2008.83 4829,2050.5C 4829.5,2052.33 4830.67,2053.5 4832.5,2054C 4837.82,2054.5 4843.16,2054.67 4848.5,2054.5C 4848.5,2056.83 4848.5,2059.17 4848.5,2061.5C 4831.83,2061.5 4815.17,2061.5 4798.5,2061.5C 4798.5,2059.17 4798.5,2056.83 4798.5,2054.5C 4803.84,2054.67 4809.18,2054.5 4814.5,2054C 4816.06,2053.68 4817.23,2052.85 4818,2051.5C 4818.67,2005.17 4818.67,1958.83 4818,1912.5C 4817.31,1909.8 4815.81,1907.64 4813.5,1906C 4807.56,1904.84 4801.56,1904.34 4795.5,1904.5C 4795.5,1902.17 4795.5,1899.83 4795.5,1897.5 Z"/></g>
<g><path style="opacity:0.976" fill="#000000" d="M 2691.5,1898.5 C 2733.83,1898.33 2776.17,1898.5 2818.5,1899C 2819.18,1913.96 2819.85,1928.96 2820.5,1944C 2820.36,1944.77 2820.02,1945.44 2819.5,1946C 2817.19,1946.5 2814.86,1946.66 2812.5,1946.5C 2814.74,1914.76 2800.07,1901.59 2768.5,1907C 2767.87,1907.75 2767.37,1908.58 2767,1909.5C 2766.33,1956.83 2766.33,2004.17 2767,2051.5C 2767.77,2052.85 2768.94,2053.68 2770.5,2054C 2775.82,2054.5 2781.16,2054.67 2786.5,2054.5C 2786.5,2056.83 2786.5,2059.17 2786.5,2061.5C 2765.82,2061.83 2745.16,2061.5 2724.5,2060.5C 2723.17,2058.83 2723.17,2057.17 2724.5,2055.5C 2729.8,2054.67 2735.14,2054.17 2740.5,2054C 2742.33,2053.5 2743.5,2052.33 2744,2050.5C 2744.99,2002.75 2744.66,1955.08 2743,1907.5C 2711.13,1901.21 2696.29,1914.21 2698.5,1946.5C 2695.88,1946.77 2693.38,1946.44 2691,1945.5C 2691.36,1929.86 2691.53,1914.19 2691.5,1898.5 Z"/></g>
<g><path style="opacity:0.955" fill="#000000" d="M 3225.5,1898.5 C 3267.83,1898.5 3310.17,1898.5 3352.5,1898.5C 3352.98,1914.5 3353.31,1930.5 3353.5,1946.5C 3351.17,1946.5 3348.83,1946.5 3346.5,1946.5C 3347.78,1913.94 3332.61,1901.27 3301,1908.5C 3300.33,1956.5 3300.33,2004.5 3301,2052.5C 3301.75,2053.13 3302.58,2053.63 3303.5,2054C 3309.16,2054.5 3314.82,2054.67 3320.5,2054.5C 3320.5,2056.83 3320.5,2059.17 3320.5,2061.5C 3299.59,2061.83 3278.76,2061.49 3258,2060.5C 3257.26,2058.56 3257.42,2056.73 3258.5,2055C 3263.83,2054.67 3269.17,2054.33 3274.5,2054C 3275.42,2053.63 3276.25,2053.13 3277,2052.5C 3277.67,2004.5 3277.67,1956.5 3277,1908.5C 3245.47,1901.18 3230.3,1913.85 3231.5,1946.5C 3229.17,1946.5 3226.83,1946.5 3224.5,1946.5C 3225.17,1930.51 3225.5,1914.51 3225.5,1898.5 Z"/></g>
<g><path style="opacity:0.955" fill="#000000" d="M 4244.5,1898.5 C 4286.83,1898.5 4329.17,1898.5 4371.5,1898.5C 4371.5,1914.51 4371.83,1930.51 4372.5,1946.5C 4370.17,1946.5 4367.83,1946.5 4365.5,1946.5C 4366.7,1913.85 4351.53,1901.18 4320,1908.5C 4319.33,1956.5 4319.33,2004.5 4320,2052.5C 4320.75,2053.13 4321.58,2053.63 4322.5,2054C 4328.16,2054.5 4333.82,2054.67 4339.5,2054.5C 4339.76,2056.79 4339.42,2058.96 4338.5,2061C 4317.84,2061.5 4297.17,2061.67 4276.5,2061.5C 4276.5,2059.17 4276.5,2056.83 4276.5,2054.5C 4282.18,2054.67 4287.84,2054.5 4293.5,2054C 4294.42,2053.63 4295.25,2053.13 4296,2052.5C 4296.67,2004.5 4296.67,1956.5 4296,1908.5C 4264.39,1901.27 4249.22,1913.94 4250.5,1946.5C 4248.17,1946.5 4245.83,1946.5 4243.5,1946.5C 4243.64,1930.5 4243.98,1914.5 4244.5,1898.5 Z"/></g>
<g><path style="opacity:0.961" fill="#000000" d="M 323.5,1974.5 C 865.5,1974.5 1407.5,1974.5 1949.5,1974.5C 1949.5,1978.83 1949.5,1983.17 1949.5,1987.5C 1407.5,1987.5 865.5,1987.5 323.5,1987.5C 323.5,1983.17 323.5,1978.83 323.5,1974.5 Z"/></g>
<g><path style="opacity:0.966" fill="#000000" d="M 2907.5,2221.5 C 2910.83,2221.5 2914.17,2221.5 2917.5,2221.5C 2917.17,2248.17 2917.5,2274.84 2918.5,2301.5C 2929.23,2295.2 2940.73,2291.2 2953,2289.5C 2972.03,2291.52 2985.03,2301.52 2992,2319.5C 3000.58,2353.84 2988.41,2377.34 2955.5,2390C 2940.82,2392.76 2926.15,2392.43 2911.5,2389C 2902.16,2388.7 2892.82,2388.7 2883.5,2389C 2882.58,2386.96 2882.24,2384.79 2882.5,2382.5C 2885.85,2382.67 2889.18,2382.5 2892.5,2382C 2894.33,2381.73 2895.83,2380.89 2897,2379.5C 2897.67,2330.83 2897.67,2282.17 2897,2233.5C 2896.63,2232.58 2896.13,2231.75 2895.5,2231C 2890.96,2230.25 2886.46,2230.42 2882,2231.5C 2878.96,2229.19 2878.8,2226.69 2881.5,2224C 2890.36,2223.59 2899.02,2222.75 2907.5,2221.5 Z M 2940.5,2302.5 C 2958.79,2305.29 2969.29,2315.96 2972,2334.5C 2973.99,2346.88 2971.99,2358.54 2966,2369.5C 2954.06,2383.53 2939.23,2387.36 2921.5,2381C 2920.07,2380.53 2918.9,2379.7 2918,2378.5C 2917.33,2356.83 2917.33,2335.17 2918,2313.5C 2918.47,2312.07 2919.3,2310.9 2920.5,2310C 2926.77,2306.02 2933.43,2303.52 2940.5,2302.5 Z"/></g>
<g><path style="opacity:0.959" fill="#000000" d="M 3589.5,2221.5 C 3592.78,2221.22 3595.94,2221.55 3599,2222.5C 3599.5,2259.83 3599.67,2297.17 3599.5,2334.5C 3605.94,2335.03 3611.11,2332.7 3615,2327.5C 3620.91,2320.01 3626.58,2312.34 3632,2304.5C 3632.49,2303.21 3632.66,2301.87 3632.5,2300.5C 3628.18,2300.07 3623.84,2299.74 3619.5,2299.5C 3619.34,2297.47 3619.5,2295.47 3620,2293.5C 3620.89,2292.92 3621.89,2292.59 3623,2292.5C 3635.33,2293.83 3647.67,2293.83 3660,2292.5C 3661.11,2292.59 3662.11,2292.92 3663,2293.5C 3663.5,2295.47 3663.66,2297.47 3663.5,2299.5C 3657.54,2299.38 3651.88,2300.55 3646.5,2303C 3637.88,2312.12 3630.21,2321.95 3623.5,2332.5C 3635.82,2350 3649.82,2366.16 3665.5,2381C 3669.1,2382.08 3672.77,2382.91 3676.5,2383.5C 3677.17,2383.17 3677.83,2382.83 3678.5,2382.5C 3679.47,2384.74 3679.81,2387.08 3679.5,2389.5C 3661.88,2388.95 3644.21,2388.95 3626.5,2389.5C 3625.86,2387.54 3625.86,2385.71 3626.5,2384C 3629.73,2382.8 3633.06,2382.3 3636.5,2382.5C 3636.39,2380.22 3635.56,2378.22 3634,2376.5C 3627,2368.17 3620,2359.83 3613,2351.5C 3609.7,2346.61 3605.2,2343.94 3599.5,2343.5C 3599.33,2355.84 3599.5,2368.17 3600,2380.5C 3600.5,2381 3601,2381.5 3601.5,2382C 3605.49,2382.5 3609.49,2382.67 3613.5,2382.5C 3613.5,2384.83 3613.5,2387.17 3613.5,2389.5C 3597.21,2388.95 3580.88,2388.95 3564.5,2389.5C 3564.5,2387.5 3564.5,2385.5 3564.5,2383.5C 3568.47,2382.89 3572.47,2382.39 3576.5,2382C 3577.85,2381.23 3578.68,2380.06 3579,2378.5C 3579.67,2330.17 3579.67,2281.83 3579,2233.5C 3578.5,2232.33 3577.67,2231.5 3576.5,2231C 3571.8,2230.61 3567.13,2230.61 3562.5,2231C 3560.94,2228.36 3561.27,2226.02 3563.5,2224C 3572.36,2223.59 3581.02,2222.75 3589.5,2221.5 Z"/></g>
<g><path style="opacity:0.96" fill="#000000" d="M 2271.5,2290.5 C 2291.34,2287.66 2308.18,2293.33 2322,2307.5C 2331.18,2320.04 2334.51,2334.04 2332,2349.5C 2325.9,2377.24 2308.56,2391.57 2280,2392.5C 2245.15,2389.99 2228.15,2371.32 2229,2336.5C 2232.66,2311.35 2246.82,2296.01 2271.5,2290.5 Z M 2274.5,2298.5 C 2289.95,2298.12 2300.45,2305.12 2306,2319.5C 2312,2335.5 2312,2351.5 2306,2367.5C 2297.03,2383.82 2284.2,2387.65 2267.5,2379C 2258.55,2371.6 2253.38,2362.1 2252,2350.5C 2249.88,2336.17 2251.88,2322.51 2258,2309.5C 2262.39,2303.91 2267.89,2300.24 2274.5,2298.5 Z"/></g>
<g><path style="opacity:0.959" fill="#000000" d="M 2401.5,2290.5 C 2406.18,2290.33 2410.85,2290.5 2415.5,2291C 2418.25,2292.12 2420.75,2293.62 2423,2295.5C 2423.67,2304.17 2423.67,2312.83 2423,2321.5C 2420.76,2323.79 2418.26,2324.12 2415.5,2322.5C 2415.46,2316.47 2414.96,2310.47 2414,2304.5C 2413.17,2302.33 2411.67,2300.83 2409.5,2300C 2398.65,2298.51 2390.82,2302.68 2386,2312.5C 2385.33,2335.17 2385.33,2357.83 2386,2380.5C 2386.75,2381.13 2387.58,2381.63 2388.5,2382C 2392.15,2382.5 2395.82,2382.67 2399.5,2382.5C 2399.5,2384.83 2399.5,2387.17 2399.5,2389.5C 2383.17,2388.17 2366.83,2388.17 2350.5,2389.5C 2350.5,2387.17 2350.5,2384.83 2350.5,2382.5C 2354.18,2382.67 2357.85,2382.5 2361.5,2382C 2363.33,2381.5 2364.5,2380.33 2365,2378.5C 2365.67,2353.83 2365.67,2329.17 2365,2304.5C 2364.63,2303.58 2364.13,2302.75 2363.5,2302C 2358.5,2301.67 2353.5,2301.33 2348.5,2301C 2347.42,2299.27 2347.26,2297.44 2348,2295.5C 2359.62,2294.12 2371.29,2292.78 2383,2291.5C 2383.77,2291.64 2384.44,2291.98 2385,2292.5C 2385.33,2295.17 2385.67,2297.83 2386,2300.5C 2390.82,2296.48 2395.99,2293.15 2401.5,2290.5 Z"/></g>
<g><path style="opacity:0.958" fill="#000000" d="M 2470.5,2290.5 C 2478.17,2290.33 2485.84,2290.5 2493.5,2291C 2505.59,2293.09 2512.09,2300.26 2513,2312.5C 2513.33,2333.83 2513.67,2355.17 2514,2376.5C 2514.76,2378.91 2516.42,2379.91 2519,2379.5C 2523.24,2378.8 2527.08,2377.13 2530.5,2374.5C 2533.14,2375.74 2533.98,2377.74 2533,2380.5C 2525.71,2386.64 2517.38,2390.64 2508,2392.5C 2500.37,2391.71 2495.21,2387.71 2492.5,2380.5C 2483.14,2387.02 2472.8,2391.02 2461.5,2392.5C 2444.65,2389.65 2435.99,2379.65 2435.5,2362.5C 2435.07,2355.53 2437.74,2350.03 2443.5,2346C 2459.2,2338.1 2475.54,2331.76 2492.5,2327C 2495.92,2304.75 2486.59,2295.75 2464.5,2300C 2459.31,2301.19 2456.14,2304.36 2455,2309.5C 2454.67,2313.83 2454.33,2318.17 2454,2322.5C 2451.62,2323.44 2449.12,2323.77 2446.5,2323.5C 2446.43,2315.8 2446.26,2308.14 2446,2300.5C 2453.62,2295.6 2461.79,2292.27 2470.5,2290.5 Z M 2489.5,2336.5 C 2490.82,2336.33 2491.99,2336.66 2493,2337.5C 2493.67,2346.83 2493.67,2356.17 2493,2365.5C 2491.56,2372.27 2487.4,2376.44 2480.5,2378C 2469.15,2381.08 2462.32,2376.91 2460,2365.5C 2456.82,2354.35 2460.66,2346.85 2471.5,2343C 2477.57,2340.7 2483.57,2338.53 2489.5,2336.5 Z"/></g>
<g><path style="opacity:0.959" fill="#000000" d="M 2611.5,2290.5 C 2632.83,2288.32 2643.66,2297.99 2644,2319.5C 2644.33,2339.83 2644.67,2360.17 2645,2380.5C 2645.5,2381 2646,2381.5 2646.5,2382C 2650.49,2382.5 2654.49,2382.67 2658.5,2382.5C 2658.5,2384.83 2658.5,2387.17 2658.5,2389.5C 2642.21,2388.95 2625.88,2388.95 2609.5,2389.5C 2609.5,2387.5 2609.5,2385.5 2609.5,2383.5C 2613.47,2382.89 2617.47,2382.39 2621.5,2382C 2622.67,2381.5 2623.5,2380.67 2624,2379.5C 2624.89,2358.81 2624.55,2338.14 2623,2317.5C 2620.39,2305.27 2612.89,2300.77 2600.5,2304C 2594.22,2306.14 2588.55,2309.31 2583.5,2313.5C 2581.7,2315.13 2580.54,2317.13 2580,2319.5C 2579.33,2339.5 2579.33,2359.5 2580,2379.5C 2580.5,2380.67 2581.33,2381.5 2582.5,2382C 2586.17,2382.33 2589.83,2382.67 2593.5,2383C 2594.58,2384.73 2594.74,2386.56 2594,2388.5C 2577.95,2388.92 2561.78,2389.25 2545.5,2389.5C 2545.2,2387.4 2545.53,2385.4 2546.5,2383.5C 2550.11,2382.74 2553.78,2382.24 2557.5,2382C 2558,2381.5 2558.5,2381 2559,2380.5C 2559.67,2354.5 2559.67,2328.5 2559,2302.5C 2553.59,2301.53 2548.09,2301.19 2542.5,2301.5C 2542.5,2299.17 2542.5,2296.83 2542.5,2294.5C 2554.06,2294.09 2565.56,2293.09 2577,2291.5C 2577.77,2291.64 2578.44,2291.98 2579,2292.5C 2579.33,2296.83 2579.67,2301.17 2580,2305.5C 2590.01,2299.24 2600.51,2294.24 2611.5,2290.5 Z"/></g>
<g><path style="opacity:0.959" fill="#000000" d="M 2706.5,2290.5 C 2712.51,2290.33 2718.51,2290.5 2724.5,2291C 2729.55,2291.68 2734.22,2293.35 2738.5,2296C 2747.49,2296.5 2756.49,2296.67 2765.5,2296.5C 2765.77,2299.12 2765.44,2301.62 2764.5,2304C 2759.17,2304.33 2753.83,2304.67 2748.5,2305C 2758.17,2321 2757.34,2336.5 2746,2351.5C 2732.51,2363.24 2717.01,2367.07 2699.5,2363C 2698.09,2368.16 2700.09,2371.49 2705.5,2373C 2717.79,2374.23 2730.12,2374.89 2742.5,2375C 2763.07,2378.96 2770.9,2391.13 2766,2411.5C 2756.67,2428.5 2743.17,2441 2725.5,2449C 2708.58,2453.83 2692.58,2451.83 2677.5,2443C 2668.22,2435.49 2664.72,2425.99 2667,2414.5C 2675.1,2408.4 2682.6,2401.57 2689.5,2394C 2692.55,2392.93 2694.55,2393.93 2695.5,2397C 2691.62,2401.88 2688.12,2407.05 2685,2412.5C 2683.68,2427.03 2689.85,2436.86 2703.5,2442C 2721.67,2444.17 2735.5,2437.33 2745,2421.5C 2748.27,2414.47 2748.27,2407.47 2745,2400.5C 2743.06,2397.89 2740.56,2396.06 2737.5,2395C 2723.13,2394.13 2708.79,2392.8 2694.5,2391C 2682.75,2387.78 2677.08,2380.28 2677.5,2368.5C 2682.56,2365.65 2687.22,2362.31 2691.5,2358.5C 2677,2347.51 2672.17,2333.17 2677,2315.5C 2682.45,2301.87 2692.28,2293.54 2706.5,2290.5 Z M 2710.5,2298.5 C 2723.66,2298.82 2731.49,2305.49 2734,2318.5C 2736.06,2327.69 2735.39,2336.69 2732,2345.5C 2725.74,2355.47 2717.24,2357.97 2706.5,2353C 2700.8,2348.11 2697.3,2341.94 2696,2334.5C 2694.93,2326.01 2695.6,2317.67 2698,2309.5C 2700.5,2303.82 2704.67,2300.16 2710.5,2298.5 Z"/></g>
<g><path style="opacity:0.957" fill="#000000" d="M 2821.5,2290.5 C 2842.01,2286.84 2856.84,2294.17 2866,2312.5C 2867.39,2317.09 2867.73,2321.76 2867,2326.5C 2865.93,2327.19 2864.77,2327.69 2863.5,2328C 2843.53,2329.23 2823.53,2329.9 2803.5,2330C 2799.24,2348.55 2804.57,2363.88 2819.5,2376C 2829.47,2382.42 2839.8,2383.09 2850.5,2378C 2854.78,2376.53 2858.78,2374.53 2862.5,2372C 2867.34,2371.38 2868.68,2373.38 2866.5,2378C 2854.46,2385.51 2841.46,2390.34 2827.5,2392.5C 2796.79,2389.62 2780.45,2372.79 2778.5,2342C 2780.3,2314.17 2794.63,2297 2821.5,2290.5 Z M 2825.5,2298.5 C 2839.9,2298.58 2847.24,2305.91 2847.5,2320.5C 2832.85,2321.78 2818.19,2321.78 2803.5,2320.5C 2806.59,2308.75 2813.92,2301.41 2825.5,2298.5 Z"/></g>
<g><path style="opacity:0.964" fill="#000000" d="M 3053.5,2290.5 C 3074.6,2287.47 3092.1,2293.81 3106,2309.5C 3118.6,2330.15 3118.6,2350.82 3106,2371.5C 3086.88,2392.32 3064.05,2397.49 3037.5,2387C 3016.73,2374.75 3008.23,2356.58 3012,2332.5C 3016.65,2309.35 3030.49,2295.35 3053.5,2290.5 Z M 3056.5,2298.5 C 3072.6,2297.97 3083.44,2305.31 3089,2320.5C 3093.67,2335.83 3093.67,2351.17 3089,2366.5C 3079.65,2384.5 3066.15,2388.33 3048.5,2378C 3036.4,2364.91 3031.57,2349.41 3034,2331.5C 3034.5,2320.31 3038.67,2310.81 3046.5,2303C 3049.82,2301.17 3053.15,2299.67 3056.5,2298.5 Z"/></g>
<g><path style="opacity:0.952" fill="#000000" d="M 3335.5,2290.5 C 3348.8,2288.6 3361.14,2291.1 3372.5,2298C 3373.33,2298.83 3374.17,2299.67 3375,2300.5C 3375.83,2308.19 3375.66,2315.85 3374.5,2323.5C 3372.3,2324.78 3370.13,2324.78 3368,2323.5C 3369.25,2306.59 3361.42,2298.25 3344.5,2298.5C 3326.77,2300.06 3316.61,2309.73 3314,2327.5C 3310.59,2346.26 3315.75,2362.09 3329.5,2375C 3337.74,2380.78 3346.74,2382.45 3356.5,2380C 3363.29,2377.44 3369.95,2374.61 3376.5,2371.5C 3378.74,2371.57 3379.74,2372.74 3379.5,2375C 3379.41,2376.11 3379.08,2377.11 3378.5,2378C 3366.19,2385.24 3353.02,2390.08 3339,2392.5C 3308.56,2389.39 3292.39,2372.56 3290.5,2342C 3292.66,2313.47 3307.66,2296.31 3335.5,2290.5 Z"/></g>
<g><path style="opacity:0.962" fill="#000000" d="M 3435.5,2290.5 C 3459.19,2286.99 3477.69,2294.99 3491,2314.5C 3498.86,2333.15 3498.19,2351.48 3489,2369.5C 3474.31,2388.29 3455.14,2395.46 3431.5,2391C 3406.77,2384.42 3393.77,2368.25 3392.5,2342.5C 3393.84,2314.18 3408.17,2296.85 3435.5,2290.5 Z M 3438.5,2298.5 C 3458.13,2298.95 3469.63,2308.95 3473,2328.5C 3476.32,2344.26 3474.32,2359.26 3467,2373.5C 3456.71,2384.59 3444.87,2386.43 3431.5,2379C 3422.49,2370.82 3417.33,2360.66 3416,2348.5C 3414.52,2336.5 3415.85,2324.83 3420,2313.5C 3423.99,2305.66 3430.16,2300.66 3438.5,2298.5 Z"/></g>
<g><path style="opacity:0.957" fill="#000000" d="M 3724.5,2290.5 C 3742.48,2287.31 3756.64,2292.98 3767,2307.5C 3770.03,2313.51 3771.03,2319.85 3770,2326.5C 3768.93,2327.19 3767.77,2327.69 3766.5,2328C 3746.29,2329.07 3726.12,2329.9 3706,2330.5C 3702.04,2352.08 3709.54,2368.25 3728.5,2379C 3738.05,2382.3 3747.38,2381.63 3756.5,2377C 3760.2,2375.15 3763.87,2373.32 3767.5,2371.5C 3771.28,2372.87 3771.95,2375.04 3769.5,2378C 3757.46,2385.51 3744.46,2390.34 3730.5,2392.5C 3707.09,2391.24 3691.59,2379.58 3684,2357.5C 3677.92,2332.71 3685.09,2312.88 3705.5,2298C 3711.6,2294.58 3717.94,2292.08 3724.5,2290.5 Z M 3728.5,2298.5 C 3743.35,2298.15 3750.68,2305.48 3750.5,2320.5C 3735.85,2321.78 3721.19,2321.78 3706.5,2320.5C 3709.61,2308.72 3716.95,2301.39 3728.5,2298.5 Z"/></g>
<g><path style="opacity:0.954" fill="#000000" d="M 1674.5,2292.5 C 1690.73,2293.39 1706.9,2293.73 1723,2293.5C 1723.74,2295.44 1723.58,2297.27 1722.5,2299C 1718.83,2299.33 1715.17,2299.67 1711.5,2300C 1711.04,2300.41 1710.71,2300.91 1710.5,2301.5C 1717.85,2320.7 1725.68,2339.7 1734,2358.5C 1741.73,2343.87 1748.23,2328.71 1753.5,2313C 1752.21,2308.09 1749.88,2303.76 1746.5,2300C 1743.57,2299.78 1740.74,2299.28 1738,2298.5C 1737.26,2296.56 1737.42,2294.73 1738.5,2293C 1753.39,2293.39 1768.22,2293.55 1783,2293.5C 1783.74,2295.44 1783.58,2297.27 1782.5,2299C 1779.17,2299.33 1775.83,2299.67 1772.5,2300C 1772.04,2300.41 1771.71,2300.91 1771.5,2301.5C 1778.97,2320.43 1786.97,2339.1 1795.5,2357.5C 1804.04,2339.72 1811.71,2321.55 1818.5,2303C 1818.25,2301.67 1817.58,2300.67 1816.5,2300C 1812.83,2299.67 1809.17,2299.33 1805.5,2299C 1804.17,2297 1804.17,2295 1805.5,2293C 1832.47,2293.02 1859.47,2293.02 1886.5,2293C 1887.83,2295 1887.83,2297 1886.5,2299C 1882.83,2299.33 1879.17,2299.67 1875.5,2300C 1875.04,2300.41 1874.71,2300.91 1874.5,2301.5C 1881.99,2320.82 1890.16,2339.82 1899,2358.5C 1905.73,2343.71 1911.9,2328.71 1917.5,2313.5C 1916.93,2309.03 1915.26,2305.03 1912.5,2301.5C 1909.44,2299.86 1906.11,2299.03 1902.5,2299C 1901.42,2297.27 1901.26,2295.44 1902,2293.5C 1916.75,2293.59 1931.59,2293.42 1946.5,2293C 1947.42,2295.04 1947.76,2297.21 1947.5,2299.5C 1943.3,2299.08 1939.3,2299.58 1935.5,2301C 1942.82,2320.14 1950.82,2338.97 1959.5,2357.5C 1968.04,2339.72 1975.71,2321.55 1982.5,2303C 1982.25,2301.67 1981.58,2300.67 1980.5,2300C 1976.79,2299.83 1973.12,2299.33 1969.5,2298.5C 1968.17,2296.83 1968.17,2295.17 1969.5,2293.5C 1994.59,2292.88 2019.76,2292.55 2045,2292.5C 2050.76,2291.43 2052.93,2293.76 2051.5,2299.5C 2047.49,2299.33 2043.49,2299.5 2039.5,2300C 2039.04,2300.41 2038.71,2300.91 2038.5,2301.5C 2046.13,2320.76 2054.3,2339.76 2063,2358.5C 2069.65,2343.38 2076.15,2328.21 2082.5,2313C 2080.81,2308.46 2078.48,2304.29 2075.5,2300.5C 2072.5,2299.91 2069.5,2299.25 2066.5,2298.5C 2065.17,2296.83 2065.17,2295.17 2066.5,2293.5C 2081.44,2293.72 2096.44,2293.38 2111.5,2292.5C 2111.5,2294.83 2111.5,2297.17 2111.5,2299.5C 2107.3,2299.08 2103.3,2299.58 2099.5,2301C 2106.99,2320.47 2115.15,2339.64 2124,2358.5C 2132.11,2339.95 2139.94,2321.28 2147.5,2302.5C 2146.91,2301.2 2145.91,2300.37 2144.5,2300C 2140.85,2299.5 2137.18,2299.33 2133.5,2299.5C 2133.5,2297.17 2133.5,2294.83 2133.5,2292.5C 2146.16,2293.75 2158.83,2293.75 2171.5,2292.5C 2171.5,2294.83 2171.5,2297.17 2171.5,2299.5C 2166.23,2298.57 2161.73,2299.9 2158,2303.5C 2144.38,2332.74 2131.88,2362.4 2120.5,2392.5C 2118.71,2392.79 2117.05,2392.45 2115.5,2391.5C 2106.53,2369.57 2097.03,2347.9 2087,2326.5C 2077.28,2348.77 2067.45,2370.94 2057.5,2393C 2056.83,2393.67 2056.17,2393.67 2055.5,2393C 2042.81,2363.12 2029.98,2333.29 2017,2303.5C 2013.78,2300.07 2009.78,2298.74 2005,2299.5C 1999.76,2298.43 1995.76,2300.09 1993,2304.5C 1980.3,2333.6 1967.8,2362.77 1955.5,2392C 1953.89,2392.72 1952.39,2392.55 1951,2391.5C 1942.24,2369.55 1932.91,2347.89 1923,2326.5C 1913.61,2347.34 1904.61,2368.34 1896,2389.5C 1893.11,2394.91 1890.78,2394.58 1889,2388.5C 1877.25,2359.59 1864.92,2330.92 1852,2302.5C 1848.83,2300.01 1845.16,2299.01 1841,2299.5C 1835.71,2298.42 1831.71,2300.08 1829,2304.5C 1815.91,2333.44 1803.41,2362.6 1791.5,2392C 1788.78,2393.03 1786.95,2392.2 1786,2389.5C 1777.77,2368.14 1768.77,2347.14 1759,2326.5C 1749.09,2347.89 1739.76,2369.55 1731,2391.5C 1729.33,2394.17 1727.67,2394.17 1726,2391.5C 1714.16,2361.49 1701.49,2331.82 1688,2302.5C 1687.1,2301.3 1685.93,2300.47 1684.5,2300C 1681.18,2299.5 1677.85,2299.33 1674.5,2299.5C 1673.17,2297.17 1673.17,2294.83 1674.5,2292.5 Z"/></g>
<g><path style="opacity:0.949" fill="#000000" d="M 3125.5,2292.5 C 3141.83,2293.73 3158.16,2293.73 3174.5,2292.5C 3174.5,2294.83 3174.5,2297.17 3174.5,2299.5C 3171.17,2299.5 3167.83,2299.5 3164.5,2299.5C 3168.19,2308.87 3173.53,2317.2 3180.5,2324.5C 3186.61,2317.13 3192.61,2309.63 3198.5,2302C 3194.87,2299.76 3190.87,2298.92 3186.5,2299.5C 3186.34,2297.47 3186.5,2295.47 3187,2293.5C 3187.89,2292.92 3188.89,2292.59 3190,2292.5C 3201.73,2293.33 3213.4,2293.66 3225,2293.5C 3225.74,2295.44 3225.58,2297.27 3224.5,2299C 3220.83,2299.33 3217.17,2299.67 3213.5,2300C 3203.61,2310.39 3194.61,2321.56 3186.5,2333.5C 3196.42,2348.34 3206.59,2363.01 3217,2377.5C 3221.18,2381.85 3226.34,2383.85 3232.5,2383.5C 3232.5,2385.5 3232.5,2387.5 3232.5,2389.5C 3216.19,2389.02 3199.86,2388.86 3183.5,2389C 3182.59,2387.3 3182.26,2385.47 3182.5,2383.5C 3185.79,2382.79 3189.12,2382.46 3192.5,2382.5C 3192.12,2379.26 3190.95,2376.26 3189,2373.5C 3183.66,2366 3178.16,2358.67 3172.5,2351.5C 3164.35,2361.14 3156.68,2371.14 3149.5,2381.5C 3153.39,2382.82 3157.39,2383.48 3161.5,2383.5C 3161.5,2385.5 3161.5,2387.5 3161.5,2389.5C 3152.15,2388.56 3142.82,2388.56 3133.5,2389.5C 3129.73,2389.45 3126.23,2388.79 3123,2387.5C 3122.32,2386.22 3122.48,2385.05 3123.5,2384C 3127.42,2382.9 3131.42,2382.23 3135.5,2382C 3146.44,2369.29 3156.77,2356.12 3166.5,2342.5C 3158.58,2330.33 3150.41,2318.33 3142,2306.5C 3137.8,2300.16 3131.97,2297.82 3124.5,2299.5C 3124.3,2297.05 3124.63,2294.72 3125.5,2292.5 Z"/></g>
<g><path style="opacity:0.955" fill="#000000" d="M 2189.5,2365.5 C 2202.99,2364.15 2208.82,2370.15 2207,2383.5C 2203.08,2391.36 2196.91,2393.86 2188.5,2391C 2180.28,2385.29 2178.78,2378.12 2184,2369.5C 2185.81,2368.02 2187.65,2366.69 2189.5,2365.5 Z"/></g>
<g><path style="opacity:0.955" fill="#000000" d="M 3251.5,2365.5 C 3267.45,2365.28 3272.61,2372.61 3267,2387.5C 3258.3,2394.58 3250.63,2393.58 3244,2384.5C 3241.21,2375.97 3243.71,2369.63 3251.5,2365.5 Z"/></g>
<g><path style="opacity:0.953" fill="#000000" d="M 3525.5,2365.5 C 3539.99,2364.15 3545.83,2370.49 3543,2384.5C 3537.36,2393.03 3530.2,2394.53 3521.5,2389C 3515.24,2379.8 3516.58,2371.96 3525.5,2365.5 Z"/></g>
</svg>
