<svg xmlns="http://www.w3.org/2000/svg" xmlns:xlink="http://www.w3.org/1999/xlink" width="500" zoomAndPan="magnify" viewBox="0 0 375 374.999991" height="500" preserveAspectRatio="xMidYMid meet" version="1.0"><defs><g/><clipPath id="87a2194533"><path d="M 87.539062 59.1875 L 167 59.1875 L 167 147 L 87.539062 147 Z M 87.539062 59.1875 " clip-rule="nonzero"/></clipPath></defs><path fill="#ffffff" d="M 158.894531 127.273438 C 159.085938 127.839844 159.273438 128.410156 159.464844 128.976562 L 163.339844 139.601562 C 164.003906 139.628906 164.671875 139.660156 165.335938 139.703125 C 201.1875 141.84375 235.15625 161.183594 254.75 193.734375 C 254.363281 192.871094 253.96875 192.019531 253.554688 191.160156 C 252.96875 189.902344 252.347656 188.65625 251.707031 187.414062 C 245.839844 176.164062 238.339844 166.308594 229.628906 158.011719 C 211.746094 140.96875 188.796875 130.472656 164.675781 127.765625 C 162.757812 127.554688 160.828125 127.386719 158.894531 127.273438 Z M 158.894531 127.273438 " fill-opacity="1" fill-rule="evenodd"/><g clip-path="url(#87a2194533)"><path fill="#eb602f" d="M 87.695312 102.570312 C 87.886719 103.109375 88.34375 103.613281 89.070312 104.074219 C 90.804688 105.207031 94.019531 106.136719 98.25 106.886719 C 98.398438 106.914062 98.554688 106.933594 98.691406 106.953125 C 101.171875 107.378906 103.972656 107.742188 107.011719 108.039062 C 109.386719 108.257812 111.898438 108.449219 114.523438 108.605469 L 117.292969 112.417969 L 122.609375 119.742188 L 126.398438 124.957031 L 126.40625 124.945312 L 133.117188 134.214844 L 137.132812 139.738281 L 138.550781 141.664062 L 140.148438 143.867188 L 140.601562 144.492188 C 141.433594 145.453125 142.664062 146.0625 144.027344 146.0625 C 146.527344 146.0625 148.550781 144.035156 148.550781 141.535156 C 148.550781 141.285156 148.535156 141.042969 148.488281 140.808594 C 148.253906 140.207031 148.007812 139.601562 147.777344 139 C 147.710938 138.847656 147.652344 138.6875 147.589844 138.535156 C 147.503906 138.324219 147.414062 138.117188 147.335938 137.90625 L 142.960938 125.925781 C 141.242188 120.828125 139.679688 115.71875 138.289062 110.628906 C 138.238281 110.445312 138.183594 110.265625 138.136719 110.085938 L 166.800781 110.085938 L 166.800781 97.375 C 164.367188 96.910156 161.925781 96.511719 159.46875 96.179688 C 155.59375 95.65625 151.691406 95.285156 147.78125 95.074219 L 138.136719 95.074219 C 138.15625 95.007812 138.171875 94.945312 138.191406 94.878906 C 139.613281 89.675781 141.207031 84.449219 142.960938 79.234375 L 146.769531 68.796875 L 147.335938 67.25 C 147.414062 67.042969 147.503906 66.835938 147.589844 66.617188 C 147.652344 66.46875 147.710938 66.308594 147.777344 66.15625 C 148.011719 65.554688 148.253906 64.949219 148.488281 64.34375 C 148.53125 64.109375 148.550781 63.871094 148.550781 63.621094 C 148.550781 61.117188 146.527344 59.09375 144.027344 59.09375 C 142.664062 59.09375 141.433594 59.703125 140.601562 60.660156 L 140.148438 61.292969 L 138.550781 63.488281 L 137.136719 65.414062 L 133.949219 69.789062 L 133.117188 70.933594 L 126.40625 80.199219 L 126.398438 80.195312 L 122.609375 85.410156 L 114.523438 96.542969 C 111.898438 96.699219 109.386719 96.886719 107.011719 97.113281 C 103.972656 97.40625 101.171875 97.765625 98.691406 98.191406 C 98.558594 98.210938 98.398438 98.234375 98.25 98.261719 C 94.015625 99 90.804688 99.9375 89.070312 101.070312 C 88.34375 101.539062 87.886719 102.039062 87.695312 102.570312 Z M 87.695312 102.570312 " fill-opacity="1" fill-rule="evenodd"/></g><path fill="#eb602f" d="M 132.464844 95.070312 C 134.375 94.96875 136.285156 94.902344 138.191406 94.875 C 141.398438 94.835938 144.597656 94.898438 147.78125 95.070312 C 151.695312 95.28125 155.59375 95.652344 159.46875 96.175781 C 161.921875 96.511719 164.367188 96.910156 166.800781 97.371094 C 208.660156 105.273438 246.605469 131.609375 267.796875 172.3125 C 283.394531 202.277344 287.40625 235.203125 281.441406 265.980469 C 281.507812 265.335938 281.570312 264.683594 281.601562 264.046875 L 281.679688 263.03125 C 281.742188 262.171875 281.800781 261.292969 281.84375 260.421875 C 281.855469 260.121094 281.875 259.816406 281.886719 259.503906 C 281.90625 259.105469 281.925781 258.710938 281.9375 258.3125 C 281.9375 258.257812 281.941406 258.207031 281.941406 258.152344 C 281.953125 257.808594 281.96875 257.460938 281.984375 257.117188 C 281.984375 257.003906 281.984375 256.890625 281.988281 256.769531 C 281.988281 256.574219 282 256.378906 282.003906 256.1875 C 282.015625 255.554688 282.027344 254.914062 282.042969 254.273438 L 282.042969 254.242188 C 282.042969 253.914062 282.042969 253.5625 282.046875 253.226562 L 282.046875 252.660156 C 282.046875 174.207031 218.449219 110.609375 139.996094 110.609375 C 139.425781 110.609375 138.851562 110.613281 138.285156 110.621094 C 138.234375 110.441406 138.183594 110.261719 138.132812 110.078125 L 159.503906 110.078125 C 159.492188 110.078125 159.476562 110.074219 159.464844 110.074219 C 159.457031 110.070312 159.449219 110.070312 159.441406 110.070312 C 159.144531 110.03125 158.839844 110.003906 158.542969 109.964844 C 157.820312 109.886719 157.113281 109.816406 156.402344 109.753906 C 156.03125 109.710938 155.671875 109.6875 155.308594 109.652344 C 154.636719 109.597656 153.976562 109.539062 153.308594 109.5 C 152.941406 109.46875 152.574219 109.441406 152.195312 109.421875 C 151.507812 109.382812 150.820312 109.335938 150.132812 109.304688 C 149.792969 109.292969 149.464844 109.277344 149.125 109.265625 C 148.21875 109.222656 147.316406 109.199219 146.402344 109.179688 C 146.296875 109.179688 146.183594 109.171875 146.070312 109.171875 C 145.058594 109.160156 144.039062 109.144531 143.019531 109.144531 C 142.699219 109.160156 142.382812 109.160156 142.0625 109.171875 C 141.355469 109.179688 140.648438 109.1875 139.949219 109.207031 C 139.570312 109.207031 139.195312 109.226562 138.816406 109.246094 C 138.160156 109.277344 137.5 109.292969 136.839844 109.324219 C 136.460938 109.351562 136.074219 109.363281 135.707031 109.390625 C 134.988281 109.429688 134.292969 109.476562 133.59375 109.527344 C 133.542969 109.527344 133.488281 109.535156 133.4375 109.535156 C 131.097656 104.46875 127.984375 99.816406 124.253906 95.738281 C 126.996094 95.441406 129.730469 95.214844 132.464844 95.070312 Z M 132.464844 95.070312 " fill-opacity="1" fill-rule="evenodd"/><g fill="#eb602f" fill-opacity="1"><g transform="translate(120.823294, 253.503741)"><g><path d="M 52.328125 0.9375 C 43.628906 0.9375 35.640625 -1.101562 28.359375 -5.1875 C 21.078125 -9.269531 15.304688 -14.925781 11.046875 -22.15625 C 6.785156 -29.394531 4.65625 -37.585938 4.65625 -46.734375 C 4.65625 -55.785156 6.785156 -63.925781 11.046875 -71.15625 C 15.304688 -78.394531 21.078125 -84.054688 28.359375 -88.140625 C 35.640625 -92.222656 43.628906 -94.265625 52.328125 -94.265625 C 61.109375 -94.265625 69.113281 -92.222656 76.34375 -88.140625 C 83.582031 -84.054688 89.3125 -78.394531 93.53125 -71.15625 C 97.75 -63.925781 99.859375 -55.785156 99.859375 -46.734375 C 99.859375 -37.585938 97.75 -29.394531 93.53125 -22.15625 C 89.3125 -14.925781 83.5625 -9.269531 76.28125 -5.1875 C 69.007812 -1.101562 61.023438 0.9375 52.328125 0.9375 Z M 52.328125 -15.703125 C 57.921875 -15.703125 62.847656 -16.96875 67.109375 -19.5 C 71.367188 -22.03125 74.695312 -25.644531 77.09375 -30.34375 C 79.488281 -35.050781 80.6875 -40.515625 80.6875 -46.734375 C 80.6875 -52.941406 79.488281 -58.375 77.09375 -63.03125 C 74.695312 -67.695312 71.367188 -71.269531 67.109375 -73.75 C 62.847656 -76.238281 57.921875 -77.484375 52.328125 -77.484375 C 46.734375 -77.484375 41.78125 -76.238281 37.46875 -73.75 C 33.164062 -71.269531 29.816406 -67.695312 27.421875 -63.03125 C 25.023438 -58.375 23.828125 -52.941406 23.828125 -46.734375 C 23.828125 -40.515625 25.023438 -35.050781 27.421875 -30.34375 C 29.816406 -25.644531 33.164062 -22.03125 37.46875 -19.5 C 41.78125 -16.96875 46.734375 -15.703125 52.328125 -15.703125 Z M 52.328125 -15.703125 "/></g></g></g></svg>